<svg id="Layer_1" enable-background="new 0 0 152 152" height="512" viewBox="0 0 152 152" width="512" xmlns="http://www.w3.org/2000/svg">
  <defs>
    <linearGradient id="SVGID_1_" gradientUnits="userSpaceOnUse" x1="11.073" x2="55.456" y1="45.97" y2="90.353">
      <stop offset="0" stop-color="#008c89"/>
      <stop offset="1" stop-color="#00605e"/>
    </linearGradient>
    <linearGradient id="SVGID_2_" gradientUnits="userSpaceOnUse" x1="78.076" x2="148.906" y1="40.514" y2="111.344">
      <stop offset="0" stop-color="#008c89"/>
      <stop offset="1" stop-color="#00605e"/>
    </linearGradient>
  </defs>
  <g id="Icon">
    <path d="m22.5 34.8h27.3l16.6 29.2c.1.2.1.5 0 .7l-22 36.7h-27.6c-.4 0-.7-.3-.7-.7 0-.1 0-.2.1-.3l21.3-35.7c.1-.2.1-.5 0-.7l-15.5-28.2c-.2-.3-.1-.7.3-.9 0-.1.1-.1.2-.1z" fill="url(#SVGID_1_)"/>
    <path d="m118.9 141h-27.3l-28.6-50.9c-.1-.2-.1-.5 0-.7l44.6-78.4h27.6c.4 0 .7.3.7.7 0 .1 0 .2-.1.3l-44 77.4c-.1.2-.1.5 0 .7l27.7 49.9c.2.3.1.7-.3.9 0 .1-.1.1-.3.1z" fill="url(#SVGID_2_)"/>
  </g>
</svg>
